<?xml version="1.0" standalone="no"?>
<!DOCTYPE svg PUBLIC "-//W3C//DTD SVG 20010904//EN"
 "http://www.w3.org/TR/2001/REC-SVG-20010904/DTD/svg10.dtd">
<svg version="1.0" xmlns="http://www.w3.org/2000/svg"
 width="1015.000000pt" height="1053.000000pt" viewBox="0 0 1015.000000 1053.000000"
 preserveAspectRatio="xMidYMid meet">

<g transform="translate(0.000000,1053.000000) scale(0.100000,-0.100000)"
fill="#000000" stroke="none">
<path d="M0 5265 l0 -5265 5075 0 5075 0 0 5265 0 5265 -5075 0 -5075 0 0
-5265z m6286 3316 c69 -32 187 -120 204 -151 11 -20 70 -178 152 -405 78 -216
226 -515 364 -736 54 -86 63 -106 44 -94 -5 3 -55 15 -110 26 -139 26 -337 26
-472 -1 -279 -57 -573 -192 -708 -324 -49 -48 -87 -112 -75 -124 3 -4 34 8 68
26 267 143 487 241 667 296 256 78 368 94 552 81 l107 -7 57 -91 c126 -203
244 -356 390 -508 45 -47 85 -96 87 -110 9 -42 23 -159 20 -159 -2 0 -27 13
-56 30 -152 85 -392 164 -597 195 -148 22 -496 31 -645 16 -414 -42 -716 -173
-858 -373 -25 -35 -61 -97 -82 -138 -21 -41 -39 -77 -41 -79 -1 -2 -65 5 -141
14 -151 19 -325 17 -446 -6 -80 -15 -81 -14 -120 79 -67 157 -190 283 -365
371 -291 147 -834 208 -1252 142 -207 -33 -361 -82 -532 -167 l-67 -34 4 33
c3 17 7 53 10 78 3 27 14 54 24 63 10 10 126 46 257 81 340 91 637 184 876
276 l208 79 125 -40 c68 -23 171 -61 227 -86 171 -75 197 -84 204 -73 8 14
-36 79 -91 130 -55 52 -185 135 -226 144 -39 9 -36 16 13 39 72 34 268 145
373 213 211 137 365 262 546 442 l178 176 -39 -76 c-43 -84 -158 -278 -222
-373 -135 -200 -275 -353 -416 -454 -86 -61 -63 -66 61 -13 128 54 200 98 352
211 299 224 585 508 814 808 90 119 265 392 316 493 24 48 52 94 61 104 26 26
117 15 200 -24z m-2487 -2185 c263 -50 430 -125 557 -252 84 -83 133 -174 165
-304 73 -292 -80 -799 -293 -972 -112 -90 -227 -144 -388 -180 -93 -20 -130
-23 -320 -22 -199 0 -222 2 -311 26 -151 41 -280 117 -375 220 -124 135 -251
425 -311 708 -33 159 -38 372 -11 461 33 106 116 174 294 243 205 79 328 96
659 92 173 -3 276 -9 334 -20z m3062 -17 c263 -26 478 -99 593 -200 63 -56 89
-121 94 -242 6 -124 -11 -254 -54 -430 -44 -179 -75 -268 -135 -393 -155 -320
-376 -456 -765 -471 -519 -20 -865 160 -1005 522 -171 440 -96 852 189 1042
111 73 336 150 507 172 100 12 454 13 576 0z m1326 -360 c68 -33 117 -96 146
-192 51 -165 61 -291 32 -429 -60 -287 -212 -517 -460 -693 -152 -109 -304
-165 -399 -149 -62 10 -66 16 -64 110 3 120 -13 130 -54 33 -55 -126 -165
-341 -209 -409 -93 -143 -276 -291 -533 -432 -296 -162 -595 -262 -1071 -357
-221 -44 -377 -61 -558 -61 -191 0 -286 10 -496 51 -512 100 -913 244 -1276
460 -277 165 -425 376 -546 775 -23 77 -44 146 -47 154 -3 8 30 -18 74 -59
146 -137 282 -208 474 -250 338 -72 703 -40 951 85 122 61 249 176 336 304
111 164 208 447 228 670 4 41 11 82 16 91 14 27 133 52 269 56 103 4 139 1
204 -15 43 -12 85 -27 93 -35 9 -9 24 -77 38 -173 88 -595 345 -911 821 -1009
241 -50 529 -44 759 15 110 29 286 116 367 184 125 104 202 218 309 454 l64
143 16 -103 c17 -106 13 -193 -11 -237 -6 -12 -31 -44 -55 -71 -28 -31 -45
-60 -45 -75 0 -22 4 -25 38 -25 88 0 241 70 309 142 110 115 134 309 58 463
l-37 74 24 43 c69 125 192 112 249 -28 12 -30 25 -54 30 -54 11 0 11 6 -1 97
-17 132 -68 193 -163 193 -73 0 -136 -38 -238 -143 -49 -50 -91 -88 -95 -85
-11 12 174 372 217 421 74 86 151 107 236 66z m-5817 -636 c58 -110 170 -365
170 -388 0 -22 -11 -19 -82 21 -77 43 -89 54 -82 65 3 5 1 8 -4 7 -6 -2 -35
19 -66 45 -47 40 -55 52 -51 75 18 117 50 272 56 272 4 0 31 -44 59 -97z
m5554 -59 c15 -30 24 -59 21 -63 -3 -5 -1 -11 4 -13 4 -1 11 -21 14 -43 4 -24
3 -32 -2 -21 -11 28 -21 6 -15 -33 4 -21 2 -31 -5 -27 -5 3 -12 -3 -16 -14 -3
-11 -9 -19 -13 -18 -4 1 -15 -2 -25 -7 -15 -6 -16 -10 -5 -16 10 -7 10 -9 -2
-9 -13 0 -13 -1 0 -11 12 -9 11 -10 -7 -6 -13 3 -23 1 -23 -5 0 -5 -4 -6 -10
-3 -5 3 -10 1 -10 -5 0 -7 8 -9 20 -5 23 7 28 -17 8 -39 -11 -12 -15 -10 -25
8 -11 19 -12 17 -6 -13 4 -25 3 -32 -6 -27 -6 4 -9 11 -6 16 3 5 0 12 -6 16
-8 4 -9 3 -5 -4 4 -7 2 -12 -5 -12 -6 0 -9 8 -6 20 3 11 -1 23 -9 28 -8 4 -11
16 -7 30 7 28 25 29 21 0 -2 -11 3 -22 10 -24 7 -1 8 0 2 3 -6 3 -7 11 0 23 7
13 6 20 -3 23 -7 3 -6 6 5 6 9 1 19 7 22 14 3 6 2 -1 -1 -18 -6 -27 -5 -29 10
-16 10 7 17 23 17 35 0 17 2 18 10 6 5 -8 12 -12 15 -9 7 8 -5 40 -14 35 -3
-2 -15 2 -26 10 -13 10 -15 14 -4 14 12 0 12 2 -1 10 -22 14 -29 12 -27 -9 1
-11 10 -23 22 -26 18 -6 18 -8 3 -12 -10 -2 -18 -8 -18 -13 0 -10 -40 -25 -57
-22 -7 2 -13 -4 -13 -13 0 -9 5 -13 10 -10 6 3 10 1 10 -4 0 -6 -5 -11 -12
-11 -7 0 -6 -6 4 -17 9 -10 13 -23 11 -30 -2 -6 5 -18 16 -25 23 -16 18 -28
-10 -28 -9 0 -20 -6 -22 -12 -3 -7 -6 7 -6 32 -1 44 -25 194 -37 233 -5 17 -3
19 12 12 35 -14 64 -14 64 1 0 8 -5 14 -11 14 -5 0 -7 6 -4 13 4 6 0 4 -9 -7
-14 -18 -15 -18 -13 2 1 14 10 22 29 24 23 4 28 1 23 -11 -5 -12 -2 -12 13 2
10 9 24 17 30 17 7 0 12 4 12 9 0 6 9 9 20 8 11 -1 20 -5 20 -10 0 -5 -8 -6
-17 -3 -15 5 -15 4 1 -9 11 -8 15 -15 10 -15 -6 0 -18 -6 -28 -13 -17 -12 -15
-14 15 -14 19 0 29 2 22 4 -9 3 -6 11 7 26 14 14 17 23 9 28 -7 4 -9 16 -7 27
4 15 2 19 -8 15 -8 -3 -11 -9 -8 -14 3 -5 -4 -9 -15 -9 -25 0 -27 9 -5 24 13
10 13 12 -5 12 -11 0 -18 -3 -16 -7 3 -3 -7 -11 -20 -17 -15 -7 -25 -8 -25 -2
0 6 -7 10 -15 10 -8 0 -15 4 -15 8 0 4 9 8 20 8 11 0 20 -5 20 -10 0 -5 2 -7
5 -4 9 9 -7 38 -17 32 -6 -4 -9 -1 -7 5 3 7 7 11 9 10 3 -1 16 3 29 10 19 11
25 11 32 0 5 -8 9 -9 9 -3 0 6 -7 17 -16 25 -13 10 -17 10 -24 -1 -7 -12 -10
-11 -16 3 -8 21 -24 12 -24 -14 0 -11 -4 -17 -10 -14 -6 4 -7 -1 -3 -11 5 -13
3 -15 -7 -9 -8 5 -11 4 -7 -2 4 -6 0 -16 -8 -23 -8 -7 -12 -16 -9 -21 3 -5 0
-8 -8 -7 -9 2 -13 -9 -12 -39 1 -33 -2 -40 -13 -36 -30 12 18 121 86 196 l25
27 32 -31 c17 -17 43 -55 58 -85z m-119 -34 c4 -7 12 -7 25 0 13 7 21 7 25 0
3 -5 0 -10 -9 -10 -8 0 -16 -6 -19 -12 -3 -10 -7 -10 -20 1 -10 7 -17 9 -17 4
0 -5 -11 -10 -26 -11 -15 -1 -23 2 -19 8 4 6 11 8 16 5 5 -4 9 1 9 9 0 18 25
22 35 6z m-5514 -196 c41 -44 168 -128 226 -150 l42 -16 25 -109 c14 -60 26
-116 26 -124 0 -22 -38 -12 -136 35 -79 38 -210 145 -235 192 -11 20 -2 208
10 208 4 0 23 -16 42 -36z m5631 -45 c-2 -22 -17 -39 -35 -39 -4 0 1 10 12 22
17 17 18 24 8 36 -10 13 -9 14 3 10 9 -3 14 -15 12 -29z m-2342 -1630 c0 -15
-126 -210 -211 -325 -40 -56 -108 -148 -149 -205 -41 -57 -102 -135 -135 -174
-75 -88 -255 -275 -264 -275 -4 0 -12 17 -18 38 -6 20 -30 96 -52 167 -76 240
-99 430 -61 505 11 21 25 70 32 108 l12 69 42 -32 c53 -40 128 -60 197 -51
106 14 275 70 442 144 87 39 165 54 165 31z m203 -109 c-2 -143 -47 -327 -144
-592 -18 -50 -37 -88 -45 -88 -7 0 -35 22 -63 50 -58 58 -136 110 -165 110
-43 0 -124 -49 -194 -117 -75 -73 -98 -115 -37 -69 62 47 135 76 196 76 67 0
119 -16 119 -38 0 -52 -165 -306 -572 -882 -26 -36 -74 -111 -108 -167 -34
-57 -65 -103 -69 -103 -11 0 -97 147 -140 240 -81 176 -166 437 -197 609 -18
99 -26 262 -16 323 14 81 116 117 169 61 67 -72 159 -205 155 -224 -1 -4 8
-15 18 -24 24 -22 25 -17 5 21 -8 16 -15 38 -15 49 0 26 -99 189 -150 248 -60
68 -81 65 -174 -23 -40 -38 -76 -70 -80 -70 -14 0 9 150 35 230 57 177 157
399 193 429 10 9 28 11 55 6 l39 -6 4 -192 c4 -173 8 -205 36 -324 18 -73 57
-204 87 -290 30 -87 55 -172 55 -190 0 -17 -13 -65 -30 -106 -49 -123 -80
-271 -89 -429 -5 -79 -7 -145 -5 -147 1 -2 7 12 13 30 6 25 9 28 10 12 1 -12
4 -24 9 -26 4 -3 6 35 4 84 -5 143 34 311 138 597 7 17 15 32 19 32 18 0 130
108 242 235 110 123 146 167 234 284 10 14 51 64 91 111 39 47 108 135 153
195 145 194 127 176 174 173 l42 -3 -2 -95z m-3916 -306 c-3 -3 -12 -4 -19 -1
-8 3 -5 6 6 6 11 1 17 -2 13 -5z m941 -101 c50 -161 55 -183 50 -189 -3 -3
-102 -30 -219 -60 -118 -30 -358 -93 -535 -139 -176 -47 -325 -85 -331 -85 -5
0 -29 63 -53 141 -33 107 -41 142 -31 148 6 4 150 43 319 85 169 43 406 104
527 136 121 32 225 59 232 59 6 1 25 -43 41 -96z m-1061 71 c-3 -3 -12 -4 -19
-1 -8 3 -5 6 6 6 11 1 17 -2 13 -5z m-80 -20 c-3 -3 -12 -4 -19 -1 -8 3 -5 6
6 6 11 1 17 -2 13 -5z m-80 -20 c-3 -3 -12 -4 -19 -1 -8 3 -5 6 6 6 11 1 17
-2 13 -5z m1329 -539 c-11 -8 -27 -15 -35 -15 -10 1 -7 6 9 15 33 19 50 18 26
0z m24 -35 c-8 -5 -28 -9 -45 -9 -26 0 -27 2 -10 9 11 5 31 9 45 9 20 1 22 -1
10 -9z m-327 -64 c8 5 9 4 2 -3 -5 -6 -21 -14 -35 -17 -20 -6 -22 -5 -8 4 10
6 15 18 12 28 -5 15 -4 15 6 -1 6 -9 17 -14 23 -11z m2 -36 c3 -5 1 -10 -4
-10 -6 0 -11 5 -11 10 0 6 2 10 4 10 3 0 8 -4 11 -10z m-332 -40 c20 -1 20 -2
5 -11 -10 -5 -15 -17 -12 -27 5 -16 5 -16 -9 0 -8 10 -18 14 -22 10 -5 -4 -5
1 -2 11 4 10 7 24 8 30 0 8 2 8 6 0 2 -7 14 -13 26 -13z m-283 -78 c0 -5 -6
-9 -12 -9 -7 0 -30 -4 -50 -8 -47 -9 -50 1 -5 14 42 12 67 13 67 3z m980 -20
c0 -15 -2 -15 -10 -2 -13 20 -13 33 0 25 6 -3 10 -14 10 -23z m-985 -11 c-11
-10 -85 -25 -85 -17 0 6 57 24 80 25 8 1 10 -2 5 -8z m713 -93 c11 -29 10 -35
-5 -45 -25 -19 -33 -16 -48 20 -9 22 -10 36 -3 45 19 22 43 13 56 -20z m-288
-88 c0 -44 -13 -51 -32 -20 -19 29 -29 24 -23 -10 3 -16 1 -30 -4 -30 -12 0
-55 59 -48 67 3 3 12 -4 19 -16 17 -28 26 -26 20 4 -5 31 10 32 38 3 l20 -22
-6 32 c-4 21 -3 32 5 32 6 0 11 -17 11 -40z m-372 -102 c6 -21 7 -40 2 -43 -4
-2 -10 10 -13 28 -3 17 -9 41 -13 52 -5 14 -4 17 4 10 5 -5 15 -27 20 -47z
m-272 -35 c22 -51 8 -92 -59 -173 -30 -36 -59 -75 -66 -87 -14 -27 -32 -22
-54 16 -37 62 -6 173 68 244 53 51 90 51 111 0z m1321 -25 c-3 -8 -6 -5 -6 6
-1 11 2 17 5 13 3 -3 4 -12 1 -19z m-297 -7 c5 -11 10 -32 10 -46 0 -22 -4
-26 -22 -23 -26 4 -54 48 -45 71 9 23 44 21 57 -2z m-320 -117 c16 -40 12 -53
-16 -60 -32 -8 -43 3 -51 49 -5 36 -5 37 26 37 25 0 34 -6 41 -26z m-626 -20
c38 -38 32 -89 -19 -174 -28 -47 -67 -134 -89 -202 -8 -25 -21 -22 -49 12 -63
74 -33 234 64 345 34 38 67 45 93 19z m302 -40 c18 -15 18 -15 -3 -9 -29 8
-29 -5 -2 -39 15 -19 17 -26 6 -26 -15 0 -37 41 -37 70 0 24 10 25 36 4z m700
-129 c-13 -48 -31 -77 -22 -32 3 15 8 38 11 52 3 14 9 25 14 25 4 0 3 -20 -3
-45z m-36 7 c0 -15 -2 -15 -10 -2 -13 20 -13 33 0 25 6 -3 10 -14 10 -23z m80
-34 c0 -6 -7 -5 -15 2 -8 7 -15 17 -15 22 0 6 7 5 15 -2 8 -7 15 -17 15 -22z
m349 -20 c1 -5 -8 -8 -20 -8 -15 0 -19 -5 -15 -15 3 -8 2 -15 -3 -15 -5 0 -11
13 -13 29 -3 23 1 32 16 39 20 9 33 -2 35 -30z m-1319 -25 c19 -25 21 -38 18
-108 -2 -66 -8 -90 -34 -140 -36 -67 -63 -80 -104 -47 -18 14 -24 32 -28 74
-4 47 1 65 32 133 56 121 77 137 116 88z m651 -19 c17 -15 16 -44 -2 -44 -4 0
-6 6 -4 13 6 15 -11 44 -21 35 -3 -4 -6 -19 -6 -33 0 -32 -17 -19 -24 18 -4
23 -1 27 18 27 12 0 29 -7 39 -16z m-335 -110 c5 -43 -7 -24 -20 31 -5 22 -4
27 4 19 6 -6 13 -28 16 -50z m740 -66 c9 -9 -67 -29 -80 -21 -6 4 3 12 19 19
30 12 50 13 61 2z m-626 -189 c16 -37 8 -57 -26 -65 -49 -12 -75 60 -33 90 27
19 44 12 59 -25z m3783 -69 c52 -16 105 -30 118 -30 41 0 141 -55 208 -114
117 -102 241 -292 241 -368 0 -82 -108 -153 -256 -168 -76 -8 -120 -21 -289
-84 -38 -14 -88 -26 -109 -26 -39 0 -76 22 -76 45 0 23 68 74 158 119 50 25
92 48 92 51 0 2 -9 9 -20 15 -25 13 -100 1 -249 -41 -151 -42 -235 -36 -215
15 20 53 316 206 400 206 13 0 24 5 24 10 0 21 -84 9 -173 -26 -51 -19 -131
-60 -180 -90 -94 -58 -120 -65 -137 -35 -18 35 -11 75 20 113 69 83 255 202
349 223 36 8 51 32 30 47 -22 14 -176 1 -247 -22 -85 -27 -148 -27 -157 0 -3
10 -1 28 5 39 33 63 219 149 322 150 27 1 89 -12 141 -29z m402 -72 c22 -11
83 -64 136 -117 84 -84 103 -111 144 -195 26 -53 46 -98 44 -100 -2 -1 -17
-12 -33 -24 l-29 -22 -44 81 c-60 112 -145 230 -230 320 -40 42 -73 79 -73 83
0 9 35 -2 85 -26z"/>
<path d="M3568 6343 c6 -2 18 -2 25 0 6 3 1 5 -13 5 -14 0 -19 -2 -12 -5z"/>
<path d="M3625 6333 c123 -27 346 -120 443 -185 40 -27 72 -45 71 -41 -3 21 3
22 29 7 22 -14 20 -11 -8 14 -124 112 -377 215 -517 211 -21 -1 -29 -3 -18 -6z"/>
<path d="M3265 6284 c-63 -9 -178 -36 -209 -49 -25 -11 -50 -11 -110 -4 -43 5
-80 8 -82 6 -3 -2 14 -21 37 -42 23 -20 37 -40 32 -44 -4 -3 -33 -23 -63 -43
-30 -21 -72 -51 -93 -67 -21 -17 -68 -40 -105 -52 -37 -12 -71 -25 -76 -30
-20 -18 19 -71 90 -124 40 -30 75 -63 78 -73 3 -9 13 -53 21 -97 29 -143 103
-283 199 -374 l35 -34 -39 92 c-54 125 -63 167 -64 306 0 108 3 126 26 176 46
100 131 162 278 202 65 18 140 30 140 22 0 -3 -10 -16 -21 -28 -35 -36 -77
-136 -95 -227 -20 -100 -15 -269 12 -365 55 -207 241 -390 419 -413 132 -17
232 17 322 110 63 66 97 133 124 244 32 137 25 350 -17 449 -7 17 -2 16 42 -9
27 -16 75 -48 107 -73 31 -24 57 -39 57 -32 0 7 -16 42 -36 77 -124 226 -340
390 -614 467 -76 21 -122 27 -230 30 -74 2 -148 1 -165 -1z m691 -393 c57 -35
67 -99 24 -153 -26 -33 -62 -42 -103 -24 -61 25 -88 123 -44 163 41 38 77 42
123 14z"/>
<path d="M3082 5120 c-13 -16 -19 -30 -14 -30 17 0 62 41 57 51 -10 15 -20 10
-43 -21z"/>
<path d="M3216 5036 c-23 -36 -20 -40 14 -19 29 17 35 33 13 40 -5 2 -18 -8
-27 -21z"/>
<path d="M6262 6295 c-168 -46 -376 -176 -443 -279 l-21 -31 24 28 c13 15 27
24 31 20 4 -3 -3 -18 -15 -32 l-23 -26 30 26 c108 95 239 172 389 230 142 54
162 65 141 73 -24 9 -53 6 -113 -9z m83 -5 c-3 -5 -12 -10 -18 -10 -7 0 -6 4
3 10 19 12 23 12 15 0z"/>
<path d="M6425 6239 c-116 -17 -263 -80 -379 -163 -68 -49 -196 -178 -243
-246 -38 -56 -85 -149 -81 -160 2 -5 66 34 143 85 77 51 141 92 142 91 1 -1
-10 -31 -25 -66 -24 -58 -27 -80 -30 -208 -6 -232 36 -361 153 -471 83 -77
137 -95 270 -89 79 3 102 8 157 36 127 62 241 217 282 382 48 192 21 421 -64
540 l-21 30 38 0 c132 0 311 -100 366 -204 46 -87 17 -344 -54 -491 l-29 -60
68 72 c44 46 84 100 109 150 48 92 60 128 76 221 l12 70 80 69 c106 91 107
103 13 131 -65 19 -239 118 -245 140 -1 4 18 23 43 42 l44 35 -28 3 c-15 2
-53 -1 -83 -6 -50 -8 -67 -5 -155 24 -55 18 -134 37 -177 43 -91 13 -295 12
-382 0z m203 -353 c32 -17 62 -65 62 -99 0 -41 -49 -87 -92 -87 -84 0 -124
145 -50 184 33 19 50 19 80 2z"/>
<path d="M6960 5122 c0 -11 11 -24 25 -30 37 -17 38 -15 13 18 -25 34 -38 38
-38 12z"/>
<path d="M6825 5041 c-6 -10 41 -51 58 -51 6 0 -2 14 -18 30 -32 34 -32 33
-40 21z"/>
<path d="M4915 4810 c-9 -10 -15 -26 -11 -35 3 -9 2 -13 -4 -10 -11 7 -13 -24
-4 -49 18 -47 81 10 69 63 -9 44 -28 55 -50 31z m25 -85 c-14 -17 -30 -20 -30
-4 0 5 4 8 9 4 5 -3 12 -1 16 5 3 5 9 10 12 10 3 0 0 -7 -7 -15z"/>
<path d="M5463 4326 c-62 -55 -225 -125 -331 -142 -67 -11 -60 -24 10 -18 187
18 357 76 402 137 21 28 21 29 2 43 -29 21 -42 18 -83 -20z"/>
<path d="M4544 4306 c-22 -59 146 -133 308 -136 106 -2 111 0 32 15 -83 15
-181 57 -242 102 -44 35 -89 43 -98 19z"/>
<path d="M2283 5291 c0 -11 5 -18 9 -15 4 3 5 11 1 19 -7 21 -12 19 -10 -4z"/>
<path d="M2410 5100 c-21 -16 -23 -21 -11 -32 11 -10 12 -10 7 0 -5 7 2 20 16
32 30 25 21 25 -12 0z"/>
<path d="M2501 5058 c-1 -9 -4 -24 -8 -34 -4 -12 -3 -15 5 -10 7 4 12 2 12 -5
0 -7 2 -10 4 -8 3 2 1 20 -4 39 -4 19 -8 27 -9 18z"/>
<path d="M7825 5410 c3 -5 8 -10 11 -10 2 0 4 5 4 10 0 6 -5 10 -11 10 -5 0
-7 -4 -4 -10z"/>
<path d="M7830 5349 c0 -5 5 -7 10 -4 6 3 10 8 10 11 0 2 -4 4 -10 4 -5 0 -10
-5 -10 -11z"/>
<path d="M7890 5351 c0 -6 4 -13 10 -16 6 -3 7 1 4 9 -7 18 -14 21 -14 7z"/>
<path d="M7860 5250 c0 -5 5 -10 11 -10 5 0 7 5 4 10 -3 6 -8 10 -11 10 -2 0
-4 -4 -4 -10z"/>
<path d="M7832 5237 c-6 -7 -7 -19 -3 -26 6 -9 10 -6 14 10 8 28 3 34 -11 16z"/>
<path d="M7929 5235 c-1 -3 -3 -9 -4 -15 -1 -5 -3 -14 -4 -19 0 -5 -17 -7 -36
-4 -20 3 -35 0 -35 -5 0 -6 9 -8 20 -5 16 4 19 2 14 -11 -3 -9 -9 -14 -13 -12
-4 3 -8 -5 -8 -17 -2 -17 0 -19 7 -7 5 8 10 10 10 4 0 -6 10 -11 23 -10 17 1
22 7 21 26 -1 14 3 28 9 32 13 8 17 48 5 48 -4 0 -9 -2 -9 -5z m-15 -71 c4
-10 1 -14 -6 -12 -15 5 -23 28 -10 28 5 0 13 -7 16 -16z"/>
<path d="M7730 5176 c0 -24 12 -46 21 -40 12 7 11 -3 -1 -27 -9 -16 -7 -19 9
-19 34 0 49 10 44 30 -3 11 -11 16 -19 13 -9 -3 -14 1 -14 12 0 11 5 15 15 11
8 -3 15 -3 15 0 0 3 -7 12 -15 20 -9 9 -15 11 -15 4 0 -8 -6 -8 -20 0 -16 8
-20 8 -20 -4z m30 -16 c0 -5 -2 -10 -4 -10 -3 0 -8 5 -11 10 -3 6 -1 10 4 10
6 0 11 -4 11 -10z m20 -50 c0 -5 -2 -10 -4 -10 -3 0 -8 5 -11 10 -3 6 -1 10 4
10 6 0 11 -4 11 -10z"/>
<path d="M7798 5183 c7 -3 16 -2 19 1 4 3 -2 6 -13 5 -11 0 -14 -3 -6 -6z"/>
<path d="M7760 4960 c0 -5 5 -10 11 -10 5 0 7 5 4 10 -3 6 -8 10 -11 10 -2 0
-4 -4 -4 -10z"/>
<path d="M4545 2620 c10 -11 20 -20 23 -20 3 0 -3 9 -13 20 -10 11 -20 20 -23
20 -3 0 3 -9 13 -20z"/>
<path d="M4620 2546 c0 -2 8 -10 18 -17 15 -13 16 -12 3 4 -13 16 -21 21 -21
13z"/>
<path d="M5021 2503 c-23 -25 -39 -49 -35 -52 3 -3 12 3 20 14 8 11 28 35 45
53 18 17 27 32 21 32 -6 0 -29 -21 -51 -47z"/>
<path d="M2706 2892 c-3 -5 1 -9 9 -9 8 0 15 4 15 9 0 4 -4 8 -9 8 -6 0 -12
-4 -15 -8z"/>
<path d="M2816 2783 c-6 -14 -5 -15 5 -6 7 7 10 15 7 18 -3 3 -9 -2 -12 -12z"/>
<path d="M2330 2773 c0 -6 8 -17 18 -24 16 -13 16 -13 2 6 -8 11 -16 22 -17
24 -2 2 -3 0 -3 -6z"/>
<path d="M1926 2756 c3 -8 13 -17 22 -21 13 -5 13 -2 -3 15 -21 24 -26 25 -19
6z"/>
<path d="M2295 2740 c-3 -6 1 -7 9 -4 18 7 21 14 7 14 -6 0 -13 -4 -16 -10z"/>
<path d="M1745 2720 c-3 -6 1 -7 9 -4 18 7 21 14 7 14 -6 0 -13 -4 -16 -10z"/>
<path d="M2600 2711 c0 -6 4 -13 10 -16 6 -3 7 1 4 9 -7 18 -14 21 -14 7z"/>
<path d="M2798 2713 c7 -3 16 -2 19 1 4 3 -2 6 -13 5 -11 0 -14 -3 -6 -6z"/>
<path d="M1920 2536 c0 -2 8 -10 18 -17 15 -13 16 -12 3 4 -13 16 -21 21 -21
13z"/>
<path d="M2664 2026 c-7 -19 15 -61 26 -50 11 11 1 64 -11 64 -6 0 -12 -6 -15
-14z"/>
<path d="M2754 1756 c-6 -17 12 -56 27 -56 16 0 21 27 9 49 -12 24 -28 27 -36
7z"/>
<path d="M2425 1651 c-3 -5 -1 -12 5 -16 12 -7 30 2 30 16 0 12 -27 12 -35 0z"/>
<path d="M2435 1611 c-3 -5 -1 -12 4 -15 12 -8 41 3 41 15 0 12 -37 12 -45 0z"/>
<path d="M2296 1005 c-6 -17 9 -65 22 -65 4 0 16 6 26 13 14 10 15 18 7 40
-11 30 -45 37 -55 12z"/>
</g>
</svg>
