<?xml version="1.0" standalone="no"?>
<!DOCTYPE svg PUBLIC "-//W3C//DTD SVG 20010904//EN"
 "http://www.w3.org/TR/2001/REC-SVG-20010904/DTD/svg10.dtd">
<svg version="1.0" xmlns="http://www.w3.org/2000/svg"
 width="288.000000pt" height="427.000000pt" viewBox="0 0 288.000000 427.000000"
 preserveAspectRatio="xMidYMid meet">

<g transform="translate(0.000000,427.000000) scale(0.100000,-0.100000)"
fill="#000000" stroke="none">
<path d="M1077 4240 c6 -8 38 -53 71 -99 l61 -83 -14 -37 c-8 -20 -62 -173
-119 -340 -58 -167 -108 -306 -111 -309 -7 -7 11 -30 -274 336 -139 177 -254
322 -257 322 -2 0 9 -19 26 -42 16 -22 30 -47 30 -54 0 -7 -45 -140 -100 -295
-54 -156 -97 -285 -95 -288 3 -2 128 6 277 18 150 12 282 21 294 21 12 0 32
-16 51 -43 l30 -44 -30 -82 c-16 -45 -27 -85 -24 -88 4 -3 59 4 123 16 64 12
117 21 119 19 1 -2 34 -50 74 -108 l71 -105 -134 -300 c-112 -251 -138 -301
-158 -306 -12 -3 -31 -2 -41 3 -15 8 -13 2 7 -29 l26 -39 -84 -189 c-47 -104
-84 -190 -83 -191 1 -2 90 9 197 22 l195 25 25 -30 c17 -21 29 -28 39 -22 11
7 10 13 -4 35 -16 24 -16 26 0 26 18 0 552 67 598 75 24 4 32 -2 74 -66 l46
-70 28 27 c31 30 32 27 -28 106 -24 31 -43 61 -43 67 0 12 19 18 85 26 50 5
50 5 79 -35 28 -41 28 -41 43 -20 13 19 13 23 0 38 -14 17 -285 337 -456 540
-52 62 -96 112 -98 112 -2 0 15 -25 38 -55 l42 -56 -18 -60 c-10 -33 -21 -62
-25 -64 -3 -2 -57 64 -118 148 -61 84 -168 228 -237 322 -68 93 -121 172 -117
176 8 7 567 109 597 109 13 0 35 -21 59 -55 22 -30 43 -55 46 -55 16 0 42 39
34 52 -14 22 -796 1002 -812 1018 -14 13 -15 13 -5 0z"/>
<path d="M1550 2806 c0 -2 8 -10 18 -17 15 -13 16 -12 3 4 -13 16 -21 21 -21
13z"/>
<path d="M2863 1889 c-14 -37 -13 -41 6 -30 7 5 11 21 9 36 l-3 28 -12 -34z"/>
<path d="M720 1704 l31 -42 -37 -181 c-20 -100 -35 -183 -33 -186 5 -4 171
-22 296 -31 91 -6 93 -7 115 -40 13 -19 26 -34 29 -34 6 0 -77 -280 -85 -288
-2 -2 -15 21 -28 50 -21 45 -38 62 -109 113 -46 32 -113 89 -149 125 -36 37
-54 54 -41 39 l24 -28 -13 -183 c-6 -101 -13 -187 -13 -192 -1 -5 64 -21 145
-34 81 -14 146 -28 144 -31 -2 -3 18 -6 46 -6 46 0 53 -3 84 -39 28 -33 36
-37 49 -26 20 17 19 30 -7 57 -12 13 -19 25 -16 28 5 5 211 43 444 82 l102 17
25 -30 c14 -16 24 -31 21 -33 -2 -2 -48 -9 -103 -15 l-99 -11 99 -140 c188
-265 190 -267 205 -254 12 9 10 16 -11 41 l-25 29 62 117 c33 64 78 148 100
186 l38 69 -82 -7 c-46 -4 -92 -10 -102 -13 -14 -4 -18 -1 -13 10 4 10 -115
136 -375 398 -209 211 -347 347 -308 301 l73 -83 -28 -95 c-16 -52 -32 -97
-36 -100 -4 -2 -49 44 -98 103 -83 99 -223 258 -316 358 l-37 40 32 -41z"/>
<path d="M2791 1243 c-46 -98 -85 -181 -87 -184 -3 -5 167 19 173 25 2 2 2 78
1 171 l-3 167 -84 -179z"/>
<path d="M630 1316 c0 -2 8 -10 18 -17 15 -13 16 -12 3 4 -13 16 -21 21 -21
13z"/>
<path d="M2253 1304 c4 -7 -38 -97 -93 -202 -55 -105 -100 -193 -100 -196 0
-3 15 -3 33 0 17 3 113 16 212 29 l179 25 21 -25 c12 -15 25 -22 32 -17 8 5
-35 69 -134 197 -138 181 -164 214 -150 189z"/>
<path d="M2180 696 c0 -2 8 -10 18 -17 15 -13 16 -12 3 4 -13 16 -21 21 -21
13z"/>
<path d="M2221 644 c16 -18 11 -32 -82 -249 -55 -126 -99 -232 -99 -235 0 -3
116 7 257 22 l257 28 26 -31 c23 -28 27 -30 39 -15 12 14 11 19 -1 34 -138
164 -391 452 -400 458 -7 4 -6 -1 3 -12z"/>
</g>
</svg>
